<mxfile host="app.diagrams.net" modified="2021-03-11T20:12:12.292Z" agent="5.0 (Windows NT 10.0; Win64; x64) AppleWebKit/537.36 (KHTML, like Gecko) Chrome/88.0.4324.190 Safari/537.36" etag="EdNmw3Xa7oxKw_DhLX8N" version="14.4.7" type="github">
  <diagram id="gQ_9v4CdiexItw4zU6r-" name="Page-1">
    <mxGraphModel dx="1422" dy="762" grid="1" gridSize="10" guides="1" tooltips="1" connect="1" arrows="1" fold="1" page="1" pageScale="1" pageWidth="827" pageHeight="1169" math="0" shadow="0">
      <root>
        <mxCell id="0" />
        <mxCell id="1" parent="0" />
        <mxCell id="YsZGYLzwbfZRXPLkO7Gu-5" value="" style="edgeStyle=orthogonalEdgeStyle;rounded=0;orthogonalLoop=1;jettySize=auto;html=1;" parent="1" source="YsZGYLzwbfZRXPLkO7Gu-1" target="YsZGYLzwbfZRXPLkO7Gu-2" edge="1">
          <mxGeometry relative="1" as="geometry" />
        </mxCell>
        <mxCell id="YsZGYLzwbfZRXPLkO7Gu-1" value="" style="aspect=fixed;html=1;points=[];align=center;image;fontSize=12;image=img/lib/azure2/databases/Azure_Cosmos_DB.svg;" parent="1" vertex="1">
          <mxGeometry x="200" y="310" width="64" height="64" as="geometry" />
        </mxCell>
        <mxCell id="YsZGYLzwbfZRXPLkO7Gu-4" value="" style="edgeStyle=orthogonalEdgeStyle;rounded=0;orthogonalLoop=1;jettySize=auto;html=1;" parent="1" source="YsZGYLzwbfZRXPLkO7Gu-2" target="YsZGYLzwbfZRXPLkO7Gu-3" edge="1">
          <mxGeometry relative="1" as="geometry" />
        </mxCell>
        <mxCell id="YsZGYLzwbfZRXPLkO7Gu-2" value="pay for Troughput Unit (TU)" style="rounded=0;whiteSpace=wrap;html=1;fillColor=#dae8fc;strokeColor=#6c8ebf;" parent="1" vertex="1">
          <mxGeometry x="320" y="312" width="120" height="60" as="geometry" />
        </mxCell>
        <mxCell id="YsZGYLzwbfZRXPLkO7Gu-3" value="Offer a limited Request Units (RU)" style="whiteSpace=wrap;html=1;rounded=0;fillColor=#dae8fc;strokeColor=#6c8ebf;" parent="1" vertex="1">
          <mxGeometry x="490" y="312" width="120" height="60" as="geometry" />
        </mxCell>
        <mxCell id="YBjTQArVUFeNYg_c9qIM-5" value="0..many" style="edgeStyle=orthogonalEdgeStyle;rounded=0;orthogonalLoop=1;jettySize=auto;html=1;" edge="1" parent="1" source="YBjTQArVUFeNYg_c9qIM-3" target="YBjTQArVUFeNYg_c9qIM-4">
          <mxGeometry relative="1" as="geometry" />
        </mxCell>
        <mxCell id="YBjTQArVUFeNYg_c9qIM-3" value="Cosmos DB Acount" style="rounded=0;whiteSpace=wrap;html=1;fillColor=#dae8fc;strokeColor=#6c8ebf;" vertex="1" parent="1">
          <mxGeometry x="172" y="390" width="120" height="60" as="geometry" />
        </mxCell>
        <mxCell id="YBjTQArVUFeNYg_c9qIM-7" value="1..many" style="edgeStyle=orthogonalEdgeStyle;rounded=0;orthogonalLoop=1;jettySize=auto;html=1;" edge="1" parent="1" source="YBjTQArVUFeNYg_c9qIM-4" target="YBjTQArVUFeNYg_c9qIM-6">
          <mxGeometry relative="1" as="geometry" />
        </mxCell>
        <mxCell id="YBjTQArVUFeNYg_c9qIM-4" value="Database" style="rounded=0;whiteSpace=wrap;html=1;fillColor=#dae8fc;strokeColor=#6c8ebf;" vertex="1" parent="1">
          <mxGeometry x="172" y="500" width="120" height="60" as="geometry" />
        </mxCell>
        <mxCell id="YBjTQArVUFeNYg_c9qIM-9" value="Contains" style="edgeStyle=orthogonalEdgeStyle;rounded=0;orthogonalLoop=1;jettySize=auto;html=1;" edge="1" parent="1" source="YBjTQArVUFeNYg_c9qIM-6" target="YBjTQArVUFeNYg_c9qIM-8">
          <mxGeometry relative="1" as="geometry" />
        </mxCell>
        <mxCell id="YBjTQArVUFeNYg_c9qIM-6" value="Collection" style="rounded=0;whiteSpace=wrap;html=1;fillColor=#dae8fc;strokeColor=#6c8ebf;" vertex="1" parent="1">
          <mxGeometry x="172" y="620" width="120" height="60" as="geometry" />
        </mxCell>
        <mxCell id="YBjTQArVUFeNYg_c9qIM-8" value="document&lt;br&gt;unstructured&lt;br&gt;key/value pair" style="rounded=0;whiteSpace=wrap;html=1;fillColor=#dae8fc;strokeColor=#6c8ebf;" vertex="1" parent="1">
          <mxGeometry x="172" y="720" width="120" height="60" as="geometry" />
        </mxCell>
        <UserObject label="Each account has an endpoint:&lt;br style=&quot;font-size: 14px;&quot;&gt;https://cosmosparisa.documents.azure.com:443/" link="https://cosmosparisa.documents.azure.com:443/" id="YBjTQArVUFeNYg_c9qIM-10">
          <mxCell style="text;whiteSpace=wrap;html=1;fontSize=14;" vertex="1" parent="1">
            <mxGeometry x="300" y="405" width="280" height="30" as="geometry" />
          </mxCell>
        </UserObject>
        <UserObject label="- Each collection has a &lt;b style=&quot;font-size: 14px;&quot;&gt;Partition Key&lt;/b&gt;&lt;br style=&quot;font-size: 14px;&quot;&gt;- Any of these properties, or a combination of them, can be a partition key." link="https://cosmosparisa.documents.azure.com:443/" id="YBjTQArVUFeNYg_c9qIM-11">
          <mxCell style="text;whiteSpace=wrap;html=1;fontSize=14;" vertex="1" parent="1">
            <mxGeometry x="300" y="630" width="430" height="60" as="geometry" />
          </mxCell>
        </UserObject>
        <mxCell id="YBjTQArVUFeNYg_c9qIM-13" value="- Documents are grouped in a partition based on the value of the partition key&lt;br style=&quot;font-size: 14px;&quot;&gt;&lt;br style=&quot;font-size: 14px;&quot;&gt;-&amp;nbsp;An effective partitioning strategy distributes data and access evenly across partitions, and across time. Querying documents from within the same partition is less expensive than querying across partitions." style="text;whiteSpace=wrap;html=1;fontSize=14;" vertex="1" parent="1">
          <mxGeometry x="300" y="735" width="430" height="105" as="geometry" />
        </mxCell>
      </root>
    </mxGraphModel>
  </diagram>
</mxfile>
